<svg width="70" height="70" viewBox="0 0 70 70" fill="none" xmlns="http://www.w3.org/2000/svg">
<path d="M67.4814 46.2907L48.4469 68.445L47.4996 70.0039H23.4996L21.8469 68.6437L0.376498 44.4776C0.259748 44.3753 0.16613 44.2493 0.101891 44.108C0.0376531 43.9667 0.00428444 43.8133 0.00396385 43.658C0.00234767 43.4988 0.0347617 43.3412 0.0990113 43.1955C0.163261 43.0499 0.257849 42.9197 0.376498 42.8136C0.609797 42.5887 0.921767 42.4639 1.2458 42.4659C1.5779 42.4601 1.89896 42.5849 2.13988 42.8136L24.877 68.1718L33.4456 60.1247L17.7802 44.4776C17.6634 44.3728 17.5699 44.2445 17.5059 44.1012C17.4419 43.9578 17.4088 43.8026 17.4088 43.6456C17.4088 43.4886 17.4419 43.3334 17.5059 43.19C17.5699 43.0467 17.6634 42.9184 17.7802 42.8136C18.0135 42.5887 18.3255 42.4639 18.6495 42.4659C18.9812 42.4627 19.3013 42.5872 19.5436 42.8136L35.2339 58.4607L49.7881 44.8253H45.5907C45.4309 44.832 45.2713 44.8071 45.1211 44.752C44.9709 44.6969 44.833 44.6127 44.7153 44.5043C44.5977 44.3959 44.5026 44.2654 44.4354 44.1201C44.3683 43.9749 44.3304 43.8179 44.324 43.658C44.3272 43.496 44.3627 43.3363 44.4284 43.1882C44.4941 43.0401 44.5887 42.9067 44.7067 42.7956C44.8247 42.6846 44.9637 42.5982 45.1155 42.5416C45.2673 42.485 45.4288 42.4592 45.5907 42.4659H53.0417C53.3194 42.504 53.5792 42.6252 53.7868 42.8136L53.9358 42.9626V43.1365C53.9496 43.2437 53.9496 43.3521 53.9358 43.4593V50.4384C53.9229 50.7568 53.7856 51.0575 53.5534 51.2758C53.3212 51.494 53.0126 51.6125 52.694 51.6057C52.5341 51.6124 52.3745 51.5875 52.2243 51.5324C52.0741 51.4773 51.9363 51.3932 51.8186 51.2847C51.701 51.1763 51.6058 51.0457 51.5387 50.9005C51.4715 50.7553 51.4337 50.5983 51.4273 50.4384V46.5142L36.0038 60.9691L27.8077 68.6437H42.5855L36.5005 62.9561C36.2809 62.7395 36.1559 62.4449 36.1528 62.1365C36.1512 61.9773 36.1836 61.8196 36.2478 61.674C36.3121 61.5284 36.4067 61.3981 36.5253 61.292C36.7672 61.0739 37.0814 60.9531 37.4071 60.9531C37.7328 60.9531 38.0469 61.0739 38.2888 61.292L45.7397 68.1718L65.9664 44.8253H61.769C61.6091 44.832 61.4495 44.8071 61.2993 44.752C61.1491 44.6969 61.0113 44.6127 60.8936 44.5043C60.776 44.3959 60.6808 44.2654 60.6137 44.1201C60.5465 43.9749 60.5087 43.8179 60.5023 43.658C60.5055 43.496 60.541 43.3363 60.6067 43.1882C60.6724 43.0401 60.767 42.9067 60.885 42.7956C61.0029 42.6846 61.1419 42.5982 61.2937 42.5416C61.4455 42.485 61.6071 42.4592 61.769 42.4659H69.22C69.4496 42.5227 69.6625 42.6333 69.8409 42.7887L69.9899 42.9626V43.2358C70.0019 43.3098 70.0019 43.3853 69.9899 43.4593V50.2149C69.9835 50.3747 69.9456 50.5318 69.8785 50.677C69.8114 50.8222 69.7162 50.9528 69.5986 51.0612C69.4809 51.1696 69.3431 51.2538 69.1929 51.3089C69.0426 51.364 68.8831 51.3889 68.7232 51.3822C68.4046 51.389 68.0961 51.2705 67.8639 51.0522C67.6317 50.834 67.4943 50.5333 67.4814 50.2149V46.2907Z" fill="url(#paint0_linear_120_4041)"/>
<path d="M42.9315 20.0336C42.8574 21.9729 42.0206 23.8045 40.6032 25.13C39.1857 26.4555 37.3022 27.1678 35.3623 27.112C33.4206 27.1747 31.5333 26.4647 30.1143 25.1378C28.6953 23.8108 27.8606 21.9752 27.7932 20.0336C27.8607 18.0898 28.6945 16.2516 30.1127 14.9206C31.5309 13.5895 33.4181 12.8737 35.3623 12.9295C37.3047 12.8805 39.1881 13.5986 40.6048 14.9283C42.0215 16.2579 42.8574 18.0921 42.9315 20.0336ZM45.5148 20.0336C45.4272 17.4205 44.3061 14.949 42.3977 13.1617C40.4894 11.3744 37.9498 10.4175 35.3365 10.5011C32.7233 10.4175 30.1836 11.3744 28.2753 13.1617C26.3669 14.949 25.2458 17.4205 25.1582 20.0336C25.2458 22.6468 26.3669 25.1183 28.2753 26.9056C30.1836 28.6928 32.7233 29.6497 35.3365 29.5661C37.9498 29.6497 40.4894 28.6928 42.3977 26.9056C44.3061 25.1183 45.4272 22.6468 45.5148 20.0336Z" fill="url(#paint1_linear_120_4041)"/>
<path d="M35.3614 8.51478C35.5264 8.5217 35.6911 8.49559 35.8459 8.438C36.0006 8.3804 36.1423 8.29247 36.2627 8.17937C36.383 8.06628 36.4795 7.93029 36.5465 7.77939C36.6136 7.62849 36.6498 7.46571 36.6531 7.30062V2.83147C36.6498 2.66638 36.6136 2.5036 36.5465 2.3527C36.4795 2.2018 36.383 2.06581 36.2627 1.95272C36.1423 1.83962 36.0006 1.75169 35.8459 1.69409C35.6911 1.6365 35.5264 1.61039 35.3614 1.61731C35.1952 1.61038 35.0292 1.63633 34.873 1.69362C34.7167 1.75091 34.5733 1.83845 34.4509 1.95122C34.3286 2.06399 34.2296 2.1998 34.1598 2.35084C34.09 2.50189 34.0506 2.6652 34.0439 2.83147V7.30062C34.0506 7.46689 34.09 7.63024 34.1598 7.78129C34.2296 7.93233 34.3286 8.06814 34.4509 8.18091C34.5733 8.29368 34.7167 8.38121 34.873 8.43851C35.0292 8.4958 35.1952 8.52171 35.3614 8.51478Z" fill="url(#paint2_linear_120_4041)"/>
<path d="M27.4304 9.59808C27.5504 9.79053 27.7181 9.94869 27.9173 10.0573C28.1164 10.1659 28.3402 10.2213 28.567 10.2181C28.7916 10.2191 29.0132 10.166 29.2128 10.0631C29.3581 9.98786 29.4862 9.88348 29.5893 9.75647C29.6923 9.62945 29.7681 9.48253 29.8117 9.32491C29.8554 9.16729 29.866 9.00238 29.843 8.84046C29.8199 8.67854 29.7637 8.52312 29.6779 8.38392L24.9504 0.633936C24.7623 0.347231 24.4785 0.13663 24.1495 0.0397423C23.8174 -0.0362973 23.469 0.00955137 23.1679 0.168917C22.8749 0.332447 22.6537 0.599717 22.5479 0.918103C22.4854 1.06516 22.4531 1.22329 22.4531 1.38308C22.4531 1.54288 22.4854 1.70105 22.5479 1.8481L27.4304 9.59808Z" fill="url(#paint3_linear_120_4041)"/>
<path d="M18.827 12.4895L22.9345 14.7112C23.1322 14.8221 23.3537 14.8841 23.5803 14.892C23.8071 14.8953 24.0309 14.8399 24.2301 14.7313C24.4292 14.6227 24.5969 14.4645 24.717 14.272C24.7795 14.125 24.8117 13.9668 24.8117 13.807C24.8117 13.6472 24.7795 13.4891 24.717 13.342C24.6111 13.0236 24.3899 12.7564 24.097 12.5928L19.9895 10.3712C19.6908 10.2106 19.343 10.1666 19.0137 10.2478C18.6844 10.3289 18.3969 10.5294 18.207 10.8103C18.122 10.9511 18.0672 11.108 18.046 11.2711C18.0249 11.4342 18.0377 11.5999 18.0839 11.7577C18.13 11.9155 18.2084 12.062 18.3141 12.188C18.4197 12.314 18.5504 12.4167 18.6978 12.4895" fill="url(#paint4_linear_120_4041)"/>
<path d="M12.3175 21.2478H21.8241C21.9891 21.2547 22.1538 21.2286 22.3086 21.171C22.4634 21.1134 22.6051 21.0255 22.7254 20.9124C22.8457 20.7993 22.9422 20.6633 23.0093 20.5124C23.0763 20.3615 23.1125 20.1987 23.1158 20.0336C23.1125 19.8685 23.0763 19.7057 23.0093 19.5548C22.9422 19.4039 22.8457 19.268 22.7254 19.1549C22.6051 19.0418 22.4634 18.9538 22.3086 18.8962C22.1538 18.8386 21.9891 18.8125 21.8241 18.8195H12.3175C12.1513 18.8125 11.9853 18.8385 11.829 18.8958C11.6728 18.9531 11.5294 19.0406 11.407 19.1534C11.2847 19.2661 11.1857 19.4019 11.1159 19.553C11.0461 19.704 11.0066 19.8673 11 20.0336C11.0066 20.1999 11.0461 20.3632 11.1159 20.5143C11.1857 20.6653 11.2847 20.8011 11.407 20.9139C11.5294 21.0266 11.6728 21.1142 11.829 21.1715C11.9853 21.2288 12.1513 21.2547 12.3175 21.2478Z" fill="url(#paint5_linear_120_4041)"/>
<path d="M24.8474 26.727C24.91 26.5799 24.9422 26.4218 24.9422 26.262C24.9422 26.1022 24.91 25.944 24.8474 25.797C24.6657 25.5095 24.3779 25.3053 24.0466 25.2286C23.7316 25.1022 23.3799 25.1022 23.0649 25.2286L18.9574 27.4503C18.8109 27.5205 18.6806 27.6206 18.5751 27.7442C18.4696 27.8679 18.3912 28.0122 18.345 28.168C18.2987 28.3238 18.2856 28.4875 18.3066 28.6487C18.3275 28.8099 18.3821 28.9648 18.4666 29.1036C18.5867 29.2961 18.7544 29.4543 18.9535 29.5629C19.1526 29.6715 19.3765 29.7269 19.6033 29.7236C19.8279 29.7247 20.0495 29.6715 20.2491 29.5686L24.3566 27.3211C24.5034 27.2486 24.6339 27.1471 24.7405 27.0228C24.847 26.8985 24.9273 26.7539 24.9766 26.5978" fill="url(#paint6_linear_120_4041)"/>
<path d="M23.1686 39.8487C23.3671 39.9547 23.5894 40.008 23.8144 40.0037C24.0412 40.007 24.265 39.9516 24.4642 39.843C24.6633 39.7344 24.831 39.5762 24.9511 39.3837L29.7044 31.6338C29.7855 31.492 29.8373 31.3353 29.8565 31.1731C29.8757 31.0109 29.862 30.8465 29.8161 30.6898C29.7703 30.533 29.6933 30.3871 29.5898 30.2607C29.4863 30.1344 29.3583 30.0303 29.2135 29.9546C28.9117 29.7974 28.5641 29.7516 28.2319 29.8254C27.9049 29.9115 27.6203 30.1135 27.4311 30.3937L22.6777 38.1437C22.6152 38.2908 22.583 38.4489 22.583 38.6087C22.583 38.7685 22.6152 38.9267 22.6777 39.0737C22.7836 39.3921 23.0048 39.6594 23.2977 39.8229" fill="url(#paint7_linear_120_4041)"/>
<path d="M34.0439 32.7709V37.2401C34.0506 37.4063 34.09 37.5697 34.1598 37.7207C34.2296 37.8717 34.3286 38.0076 34.4509 38.1203C34.5733 38.2331 34.7167 38.3206 34.873 38.3779C35.0292 38.4352 35.1952 38.4612 35.3614 38.4542C35.5264 38.4612 35.6911 38.435 35.8459 38.3774C36.0006 38.3198 36.1423 38.2319 36.2627 38.1188C36.383 38.0057 36.4795 37.8697 36.5465 37.7188C36.6136 37.5679 36.6498 37.4052 36.6531 37.2401V32.7709C36.6498 32.6058 36.6136 32.4431 36.5465 32.2922C36.4795 32.1413 36.383 32.0053 36.2627 31.8922C36.1423 31.7791 36.0006 31.6911 35.8459 31.6335C35.6911 31.576 35.5264 31.5498 35.3614 31.5568C35.1952 31.5498 35.0292 31.5757 34.873 31.633C34.7167 31.6903 34.5733 31.7779 34.4509 31.8906C34.3286 32.0034 34.2296 32.1392 34.1598 32.2903C34.09 32.4413 34.0506 32.6046 34.0439 32.7709Z" fill="url(#paint8_linear_120_4041)"/>
<path d="M45.9021 39.3819C46.0221 39.5744 46.1898 39.7326 46.3889 39.8412C46.5881 39.9498 46.8119 40.0051 47.0387 40.0019C47.2633 40.003 47.4849 39.9498 47.6846 39.8469C47.8293 39.7712 47.9572 39.6671 48.0608 39.5407C48.1643 39.4144 48.2413 39.2685 48.2871 39.1117C48.3329 38.9549 48.3467 38.7906 48.3275 38.6283C48.3083 38.4661 48.2566 38.3095 48.1754 38.1677L43.422 30.4178C43.2321 30.1368 42.9446 29.9363 42.6153 29.8552C42.286 29.7741 41.9383 29.818 41.6396 29.9786C41.492 30.0564 41.3611 30.1627 41.2547 30.2913C41.1483 30.4198 41.0684 30.5682 41.0196 30.7278C40.9444 31.043 40.9906 31.3749 41.1487 31.6578L45.9021 39.3819Z" fill="url(#paint9_linear_120_4041)"/>
<path d="M51.25 29.85C51.4739 29.8566 51.6953 29.8025 51.8909 29.6933C52.0865 29.5842 52.2489 29.424 52.3608 29.23C52.4501 29.0944 52.5101 28.9416 52.5368 28.7814C52.5635 28.6212 52.5563 28.4572 52.5158 28.3C52.4665 28.1439 52.3862 27.9993 52.2797 27.875C52.1731 27.7507 52.0426 27.6492 51.8958 27.5767L47.7883 25.355C47.4909 25.1884 47.1413 25.1411 46.8103 25.2226C46.4793 25.3041 46.1917 25.5085 46.0058 25.7942C45.9203 25.9314 45.8644 26.0849 45.8417 26.2449C45.8189 26.4049 45.8298 26.5678 45.8735 26.7234C45.9173 26.879 45.993 27.0238 46.0958 27.1484C46.1986 27.2731 46.3264 27.375 46.4708 27.4475L50.6041 29.695C50.8026 29.801 51.025 29.8543 51.25 29.85Z" fill="url(#paint10_linear_120_4041)"/>
<path d="M47.6348 20.0336C47.6414 20.1999 47.6808 20.3632 47.7506 20.5143C47.8205 20.6653 47.9194 20.8011 48.0418 20.9139C48.1641 21.0266 48.3075 21.1142 48.4638 21.1715C48.62 21.2288 48.786 21.2547 48.9522 21.2478H58.4589C58.6239 21.2547 58.7886 21.2286 58.9434 21.171C59.0981 21.1134 59.2398 21.0255 59.3601 20.9124C59.4804 20.7993 59.5769 20.6633 59.644 20.5124C59.711 20.3615 59.7473 20.1987 59.7506 20.0336C59.7473 19.8685 59.711 19.7057 59.644 19.5548C59.5769 19.4039 59.4804 19.268 59.3601 19.1549C59.2398 19.0418 59.0981 18.9538 58.9434 18.8962C58.7886 18.8386 58.6239 18.8125 58.4589 18.8195H48.9522C48.786 18.8125 48.62 18.8385 48.4638 18.8958C48.3075 18.9531 48.1641 19.0406 48.0418 19.1534C47.9194 19.2661 47.8205 19.4019 47.7506 19.553C47.6808 19.704 47.6414 19.8673 47.6348 20.0336Z" fill="url(#paint11_linear_120_4041)"/>
<path d="M45.9016 14.2738C46.0193 14.4626 46.183 14.6184 46.3772 14.7268C46.5714 14.8352 46.7899 14.8926 47.0124 14.8938C47.2472 14.8861 47.4771 14.8242 47.6841 14.713L51.7916 12.4913C51.9419 12.4172 52.0748 12.3122 52.1817 12.1831C52.2885 12.054 52.3669 11.9037 52.4116 11.7421C52.4505 11.5848 52.4569 11.4211 52.4303 11.2611C52.4036 11.1012 52.3445 10.9484 52.2566 10.8121C52.0754 10.5353 51.8001 10.3334 51.4816 10.2439C51.1494 10.1678 50.801 10.2136 50.4999 10.373L46.3666 12.5947C46.2213 12.6699 46.0932 12.7742 45.9901 12.9012C45.8871 13.0283 45.8114 13.1752 45.7677 13.3328C45.7241 13.4904 45.7134 13.6554 45.7365 13.8173C45.7595 13.9792 45.8157 14.1346 45.9016 14.2738Z" fill="url(#paint12_linear_120_4041)"/>
<path d="M41.5101 10.0632C41.7086 10.1692 41.931 10.2225 42.1559 10.2182C42.3828 10.2214 42.6065 10.166 42.8057 10.0574C43.0048 9.9488 43.1726 9.79065 43.2926 9.5982L48.0459 1.84822C48.1271 1.70648 48.1788 1.54982 48.198 1.38762C48.2172 1.22542 48.2035 1.061 48.1577 0.904227C48.1119 0.747455 48.0348 0.601521 47.9313 0.475197C47.8278 0.348874 47.6998 0.244747 47.5551 0.169034C47.2563 0.00846238 46.9086 -0.0355195 46.5793 0.0456151C46.25 0.12675 45.9625 0.327221 45.7726 0.608195L41.0193 8.35817C40.9357 8.49629 40.8812 8.64998 40.859 8.80987C40.8368 8.96976 40.8473 9.13251 40.8901 9.28817C40.996 9.60656 41.2171 9.87383 41.5101 10.0374" fill="url(#paint13_linear_120_4041)"/>
<path d="M1.33787 70.0036H68.5481C68.9162 70.0096 69.273 69.9089 69.5437 69.7225C69.8144 69.5362 69.978 69.2787 70 69.0042C69.978 68.7297 69.8144 68.4723 69.5437 68.286C69.273 68.0996 68.9162 67.9988 68.5481 68.0048H1.48026C1.10738 67.9932 0.743305 68.0914 0.466431 68.2784C0.189558 68.4653 0.0220671 68.7259 0 69.0042C0.0290094 69.2806 0.198517 69.5381 0.473816 69.724C0.749114 69.9098 1.10927 70.0099 1.48026 70.0036" fill="url(#paint14_linear_120_4041)"/>
<defs>
<linearGradient id="paint0_linear_120_4041" x1="35.0014" y1="42.4648" x2="35.0014" y2="70.0039" gradientUnits="userSpaceOnUse">
<stop stop-color="#006FBC"/>
<stop offset="1" stop-color="#00A0E9"/>
</linearGradient>
<linearGradient id="paint1_linear_120_4041" x1="35.3365" y1="10.4961" x2="35.3365" y2="29.5712" gradientUnits="userSpaceOnUse">
<stop stop-color="#006FBC"/>
<stop offset="1" stop-color="#00A0E9"/>
</linearGradient>
<linearGradient id="paint2_linear_120_4041" x1="35.3485" y1="1.61621" x2="35.3485" y2="8.51588" gradientUnits="userSpaceOnUse">
<stop stop-color="#006FBC"/>
<stop offset="1" stop-color="#00A0E9"/>
</linearGradient>
<linearGradient id="paint3_linear_120_4041" x1="26.154" y1="0.00390625" x2="26.154" y2="10.2182" gradientUnits="userSpaceOnUse">
<stop stop-color="#006FBC"/>
<stop offset="1" stop-color="#00A0E9"/>
</linearGradient>
<linearGradient id="paint4_linear_120_4041" x1="21.4239" y1="10.208" x2="21.4239" y2="14.8921" gradientUnits="userSpaceOnUse">
<stop stop-color="#006FBC"/>
<stop offset="1" stop-color="#00A0E9"/>
</linearGradient>
<linearGradient id="paint5_linear_120_4041" x1="17.0579" y1="18.8184" x2="17.0579" y2="21.2489" gradientUnits="userSpaceOnUse">
<stop stop-color="#006FBC"/>
<stop offset="1" stop-color="#00A0E9"/>
</linearGradient>
<linearGradient id="paint6_linear_120_4041" x1="21.6367" y1="25.1338" x2="21.6367" y2="29.7238" gradientUnits="userSpaceOnUse">
<stop stop-color="#006FBC"/>
<stop offset="1" stop-color="#00A0E9"/>
</linearGradient>
<linearGradient id="paint7_linear_120_4041" x1="26.224" y1="29.791" x2="26.224" y2="40.004" gradientUnits="userSpaceOnUse">
<stop stop-color="#006FBC"/>
<stop offset="1" stop-color="#00A0E9"/>
</linearGradient>
<linearGradient id="paint8_linear_120_4041" x1="35.3485" y1="31.5557" x2="35.3485" y2="38.4553" gradientUnits="userSpaceOnUse">
<stop stop-color="#006FBC"/>
<stop offset="1" stop-color="#00A0E9"/>
</linearGradient>
<linearGradient id="paint9_linear_120_4041" x1="44.6601" y1="29.8154" x2="44.6601" y2="40.002" gradientUnits="userSpaceOnUse">
<stop stop-color="#006FBC"/>
<stop offset="1" stop-color="#00A0E9"/>
</linearGradient>
<linearGradient id="paint10_linear_120_4041" x1="49.1913" y1="25.1836" x2="49.1913" y2="29.8506" gradientUnits="userSpaceOnUse">
<stop stop-color="#006FBC"/>
<stop offset="1" stop-color="#00A0E9"/>
</linearGradient>
<linearGradient id="paint11_linear_120_4041" x1="53.6927" y1="18.8184" x2="53.6927" y2="21.2489" gradientUnits="userSpaceOnUse">
<stop stop-color="#006FBC"/>
<stop offset="1" stop-color="#00A0E9"/>
</linearGradient>
<linearGradient id="paint12_linear_120_4041" x1="49.0855" y1="10.208" x2="49.0855" y2="14.8938" gradientUnits="userSpaceOnUse">
<stop stop-color="#006FBC"/>
<stop offset="1" stop-color="#00A0E9"/>
</linearGradient>
<linearGradient id="paint13_linear_120_4041" x1="44.527" y1="0.00585937" x2="44.527" y2="10.2184" gradientUnits="userSpaceOnUse">
<stop stop-color="#006FBC"/>
<stop offset="1" stop-color="#00A0E9"/>
</linearGradient>
<linearGradient id="paint14_linear_120_4041" x1="35" y1="68.0039" x2="35" y2="70.0039" gradientUnits="userSpaceOnUse">
<stop stop-color="#006FBC"/>
<stop offset="1" stop-color="#00A0E9"/>
</linearGradient>
</defs>
</svg>
