<svg width="70" height="70" viewBox="0 0 70 70" fill="none" xmlns="http://www.w3.org/2000/svg">
<path d="M56.0075 38.9694H26.639C26.6172 38.9699 26.5956 38.9699 26.5739 38.9694C26.231 38.9615 25.9014 38.8288 25.6459 38.5941C25.3742 38.3446 25.2069 37.9989 25.1782 37.6279C25.2 37.2544 25.3653 36.9044 25.6385 36.6535C25.9117 36.4026 26.271 36.2708 26.639 36.2864H57.085C57.3295 36.277 57.5721 36.3326 57.7888 36.4477C58.0056 36.5629 58.1891 36.7336 58.321 36.9429C58.8548 37.9134 59.2481 38.9695 59.7256 39.9685L62.5348 46.2195C63.6303 48.6171 64.754 51.0148 65.8496 53.441C66.8328 55.4105 67.7598 57.4085 68.6587 59.4065C69.052 60.2343 69.4453 61.0621 69.8105 61.8898C69.9346 62.0961 70.0003 62.3331 70.0003 62.5748C70.0003 62.8166 69.9346 63.0537 69.8105 63.2599C69.6729 63.4636 69.4882 63.6299 69.2728 63.7443C69.0573 63.8587 68.8176 63.9178 68.5744 63.9164H1.44478C1.19694 63.9226 0.951502 63.8657 0.73075 63.7511C0.509997 63.6365 0.320885 63.4676 0.18063 63.2599C0.0622837 63.0516 0 62.8153 0 62.5748C0 62.3343 0.0622837 62.0981 0.18063 61.8898L0.601985 61.0049L6.1743 50.1487C6.39 49.8409 6.70945 49.6243 7.07197 49.5401C7.43449 49.4559 7.81486 49.51 8.14075 49.692C8.30014 49.7695 8.44173 49.8801 8.55644 50.0167C8.67116 50.1533 8.75648 50.3128 8.80677 50.485C8.85706 50.6571 8.87122 50.8381 8.84843 51.0161C8.82565 51.1942 8.76643 51.3654 8.67449 51.5188L8.25305 52.4321L3.72368 61.2333H4.39436H66.1979C66.0471 60.8986 65.8952 60.5649 65.7372 60.2343L62.928 53.9833L59.6132 46.7618C58.63 44.7638 57.703 42.7657 56.8041 40.7677L56.0075 38.9694Z" fill="url(#paint0_linear_120_4033)"/>
<path d="M26.4163 2.25346C27.5834 3.61982 28.7505 5.10004 29.9461 6.381L35.6392 12.9566L36.9202 14.4938V12.5865L33.2766 15.1769L24.4807 21.3825L13.9483 28.8406L4.78225 35.3308L1.87876 37.5511C1.39484 37.8927 0.91089 38.2058 0.426971 38.5759C0.167333 38.8212 0.0140796 39.1584 0 39.5153C0.027497 39.8689 0.178657 40.2014 0.426971 40.4547L5.03843 45.8632L5.72167 46.6317C6.00647 46.8798 6.36884 47.0207 6.7464 47.0303C7.12088 47.0061 7.47882 46.867 7.77121 46.6317L11.4432 44.0413L20.2108 37.8358L30.7432 30.3777L39.9091 23.8875C41.3893 22.8343 42.9266 21.838 44.3499 20.7563H42.2718L47.965 27.4457L48.762 28.3567C48.8959 28.4904 49.0561 28.5949 49.2325 28.6635C49.4089 28.7321 49.5977 28.7634 49.7868 28.7552C50.1742 28.7523 50.5478 28.611 50.8401 28.3567L57.0741 23.9444L57.9566 23.3182C58.0918 23.2021 58.2001 23.0579 58.2738 22.8957C58.3476 22.7334 58.385 22.557 58.3835 22.3788C58.3694 22.0219 58.2162 21.6847 57.9566 21.4394L54.2559 17.1126L47.4241 9.08525L44.9761 6.23867C44.5207 5.72628 44.2075 5.18544 43.4958 4.95771C41.0193 4.1322 38.5143 3.39208 36.0378 2.59504C33.5613 1.79799 30.6862 0.858622 28.0104 0.0615774H27.8681C27.5055 -0.0416497 27.1174 -0.00541687 26.7802 0.163173C26.443 0.331763 26.1812 0.620471 26.0463 0.972463C26.0041 1.1482 25.9972 1.3306 26.026 1.50902C26.0548 1.68744 26.1187 1.85836 26.214 2.01192C26.3093 2.16547 26.4342 2.2986 26.5813 2.40357C26.7284 2.50855 26.8949 2.5833 27.0711 2.62349L32.3942 4.30301L40.9339 6.95031L42.8981 7.57656L42.2433 7.23499L46.8833 12.6435L54.2559 21.1832L55.9354 23.1474V21.2686L49.7014 25.6809L48.8189 26.3071H50.897L45.2038 19.6461L44.4068 18.7067C44.2729 18.5729 44.1126 18.4684 43.9362 18.3998C43.7598 18.3312 43.5711 18.3 43.382 18.3082C42.9999 18.337 42.6342 18.4754 42.3287 18.7067L38.6851 21.2971L29.9177 27.5027L19.3568 34.9607L10.2192 41.4509C8.73901 42.4757 7.20186 43.5005 5.77857 44.5822H7.82811L3.21666 39.1737L2.56191 38.4051V40.3977L6.23403 37.8073L15.0015 31.6018L25.5339 24.1437L34.6999 17.6535L37.6888 15.547C38.1727 15.2054 38.6851 14.8923 39.1406 14.5222C39.4045 14.2682 39.5578 13.9206 39.5675 13.5544C39.5355 13.202 39.385 12.8709 39.1406 12.615L35.6108 8.48745L29.9177 1.91184L28.6367 0.403154C28.3502 0.149035 27.9806 0.00871639 27.5977 0.00871639C27.2148 0.00871639 26.8451 0.149035 26.5587 0.403154C26.4294 0.523065 26.3262 0.668395 26.2556 0.830038C26.185 0.991681 26.1486 1.16616 26.1486 1.34253C26.1486 1.51891 26.185 1.69338 26.2556 1.85503C26.3262 2.01667 26.4294 2.162 26.5587 2.28191" fill="url(#paint1_linear_120_4033)"/>
<path d="M1.33788 70.004H68.5484C68.9165 70.0123 69.2733 69.8731 69.544 69.6156C69.8147 69.3582 69.9783 69.0025 70.0003 68.6232C69.9783 68.244 69.8147 67.8884 69.544 67.6309C69.2733 67.3735 68.9165 67.2342 68.5484 67.2425H1.48027C1.10738 67.2264 0.743307 67.3621 0.466433 67.6204C0.189558 67.8786 0.0220672 68.2388 0 68.6232C0.0290095 69.005 0.198518 69.3608 0.473817 69.6176C0.749117 69.8744 1.10927 70.0127 1.48027 70.004" fill="url(#paint2_linear_120_4033)"/>
<defs>
<linearGradient id="paint0_linear_120_4033" x1="35.0001" y1="36.2852" x2="35.0001" y2="63.9168" gradientUnits="userSpaceOnUse">
<stop stop-color="#006FBC"/>
<stop offset="1" stop-color="#00A0E9"/>
</linearGradient>
<linearGradient id="paint1_linear_120_4033" x1="29.1918" y1="0.00390625" x2="29.1918" y2="47.0303" gradientUnits="userSpaceOnUse">
<stop stop-color="#006FBC"/>
<stop offset="1" stop-color="#00A0E9"/>
</linearGradient>
<linearGradient id="paint2_linear_120_4033" x1="35.0001" y1="67.2412" x2="35.0001" y2="70.0044" gradientUnits="userSpaceOnUse">
<stop stop-color="#006FBC"/>
<stop offset="1" stop-color="#00A0E9"/>
</linearGradient>
</defs>
</svg>
