<svg width="60" height="70" viewBox="0 0 60 70" fill="none" xmlns="http://www.w3.org/2000/svg">
<path d="M3.42083 9.29004V35.2551C3.42517 38.4643 4.1161 41.6353 5.44708 44.5546C6.77807 47.4738 8.71821 50.0736 11.1368 52.1787L30.0257 66.0113L48.9146 52.1787C51.3333 50.0736 53.2734 47.4738 54.6044 44.5546C55.9354 41.6353 56.6263 38.4643 56.6307 35.2551V9.29004L30.0515 3.46853L3.42083 9.29004ZM30 70.0039C29.5822 70.0002 29.1801 69.8445 28.8684 69.566L8.87346 54.7546C6.08363 52.3326 3.84712 49.3375 2.31599 45.9728C0.784857 42.6081 -0.00503512 38.9527 2.41506e-05 35.2551V7.95056C0.00324326 7.56934 0.130561 7.1996 0.362654 6.89742C0.594746 6.59524 0.91894 6.37715 1.28603 6.27625L29.5885 0.0425828C29.8605 -0.00898593 30.1396 -0.00898593 30.4115 0.0425828L58.714 6.27625C59.0811 6.37715 59.4053 6.59524 59.6373 6.89742C59.8694 7.1996 59.9968 7.56934 60 7.95056V35.2551C60.005 38.9527 59.2152 42.6081 57.6841 45.9728C56.153 49.3375 53.9164 52.3326 51.1266 54.7546L31.1317 69.566C30.8199 69.8445 30.4178 70.0002 30 70.0039Z" fill="url(#paint0_linear_120_4012)"/>
<path fill-rule="evenodd" clip-rule="evenodd" d="M29.5889 8.13121C29.8578 8.05392 30.1432 8.05392 30.4121 8.13121L49.876 12.433C50.2478 12.5199 50.5794 12.7297 50.8174 13.0287C51.0554 13.3278 51.1859 13.6989 51.1875 14.0814V35.2552C51.1952 37.8296 50.6483 40.3753 49.583 42.7181C48.5176 45.0611 46.9589 47.1463 45.0146 48.8304L31.1318 59.1341C30.8177 59.4051 30.4155 59.5519 30.001 59.5463L29.8457 59.5922C29.4865 59.5642 29.1441 59.4223 28.8691 59.1849L14.9863 48.8812C13.05 47.1905 11.4973 45.1044 10.4326 42.7631C9.36805 40.4218 8.81586 37.8796 8.81348 35.307V14.0814C8.81506 13.6989 8.94557 13.3278 9.18359 13.0287C9.42155 12.7297 9.75323 12.5199 10.125 12.433L29.5889 8.13121ZM12.2344 15.4984V35.307C12.2327 37.3934 12.6795 39.456 13.5449 41.3539C14.4104 43.2518 15.6744 44.9409 17.25 46.306L30.001 55.682L42.7773 46.306C44.3456 44.9363 45.6022 43.2454 46.4629 41.348C47.3236 39.4508 47.7681 37.3909 47.7666 35.307V15.4984L30.001 11.6088L12.2344 15.4984Z" fill="url(#paint1_linear_120_4012)"/>
<path d="M28.9199 41.2312C28.6759 41.2293 28.435 41.1755 28.2133 41.0733C27.9916 40.9712 27.7941 40.8231 27.6339 40.6387L20.6638 32.5504C20.3693 32.2045 20.223 31.7561 20.2567 31.3027C20.2904 30.8493 20.5014 30.4276 20.8438 30.1291C21.0112 29.9805 21.2067 29.8672 21.4187 29.7957C21.6307 29.7242 21.8547 29.696 22.0778 29.7128C22.3008 29.7296 22.5183 29.7911 22.7172 29.8935C22.9161 29.996 23.0924 30.1375 23.2358 30.3094L28.8427 36.8007L39.3108 23.1999C39.5944 22.8435 40.0056 22.6119 40.457 22.5541C40.9084 22.4964 41.3645 22.6172 41.7285 22.8908C42.0843 23.1749 42.3157 23.5867 42.3733 24.0388C42.4309 24.4909 42.3103 24.9477 42.0371 25.3122L30.283 40.5615C30.125 40.7606 29.9261 40.9235 29.6998 41.039C29.4735 41.1545 29.225 41.2201 28.9713 41.2312H28.9199Z" fill="url(#paint2_linear_120_4012)"/>
<defs>
<linearGradient id="paint0_linear_120_4012" x1="30" y1="0.00390625" x2="30" y2="70.0039" gradientUnits="userSpaceOnUse">
<stop stop-color="#006FBC"/>
<stop offset="1" stop-color="#00A0E9"/>
</linearGradient>
<linearGradient id="paint1_linear_120_4012" x1="30.0005" y1="8.07324" x2="30.0005" y2="59.5922" gradientUnits="userSpaceOnUse">
<stop stop-color="#006FBC"/>
<stop offset="1" stop-color="#00A0E9"/>
</linearGradient>
<linearGradient id="paint2_linear_120_4012" x1="31.3197" y1="22.54" x2="31.3197" y2="41.2312" gradientUnits="userSpaceOnUse">
<stop stop-color="#006FBC"/>
<stop offset="1" stop-color="#00A0E9"/>
</linearGradient>
</defs>
</svg>
