<svg width="70" height="70" viewBox="0 0 70 70" fill="none" xmlns="http://www.w3.org/2000/svg">
<path d="M47.6248 18.8705C47.4715 18.7127 47.2865 18.5902 47.0823 18.5113C46.8781 18.4324 46.6596 18.399 46.4416 18.4134C46.2236 18.4278 46.0112 18.4895 45.8188 18.5945C45.6264 18.6995 45.4586 18.8452 45.3267 19.0218C45.0199 19.3839 44.8513 19.8454 44.8513 20.3228C44.8513 20.8001 45.0199 21.2616 45.3267 21.6237C46.8849 23.216 48.1168 25.1051 48.9518 27.1821C49.7867 29.2591 50.208 31.483 50.1915 33.7258C50.208 35.9686 49.7867 38.1926 48.9518 40.2696C48.1168 42.3466 46.8849 44.2357 45.3267 45.8279C45.0162 46.1823 44.8447 46.6398 44.8447 47.1138C44.8447 47.5878 45.0162 48.0453 45.3267 48.3997C45.4688 48.5937 45.6531 48.752 45.8653 48.8622C46.0775 48.9724 46.3119 49.0315 46.5503 49.035C46.9536 49.034 47.3401 48.8708 47.6248 48.5812C49.5354 46.6253 51.0463 44.3062 52.0706 41.7569C53.0949 39.2077 53.6126 36.4784 53.5938 33.7258C53.6191 30.9723 53.1045 28.2411 52.0798 25.6909C51.0551 23.1407 49.5408 20.8224 47.6248 18.8705Z" fill="url(#paint0_linear_120_4020)"/>
<path d="M52.9067 11.2657C52.7736 11.105 52.6091 10.9762 52.4244 10.8879C52.2397 10.7996 52.0391 10.7539 51.8361 10.7539C51.6331 10.7539 51.4325 10.7996 51.2478 10.8879C51.0631 10.9762 50.8986 11.105 50.7655 11.2657C50.4742 11.6119 50.3135 12.0577 50.3135 12.5194C50.3135 12.9811 50.4742 13.4269 50.7655 13.7731C55.622 19.1581 58.3026 26.3048 58.2457 33.7159C58.3041 41.1187 55.6228 48.2569 50.7655 53.6296C50.4742 53.9759 50.3135 54.4217 50.3135 54.8834C50.3135 55.3451 50.4742 55.7909 50.7655 56.1371C50.8979 56.3128 51.0671 56.4541 51.26 56.5502C51.4529 56.6463 51.6643 56.6945 51.8778 56.6911C52.0703 56.689 52.2604 56.6467 52.4371 56.5666C52.6138 56.4865 52.7734 56.3702 52.9067 56.2245C58.348 50.1279 61.3362 42.0652 61.2489 33.7159C61.3405 25.3572 58.3522 17.2838 52.9067 11.1782" fill="url(#paint1_linear_120_4020)"/>
<path d="M57.531 2.53984C57.388 2.37216 57.2087 2.23722 57.0058 2.14458C56.803 2.05194 56.5816 2.00391 56.3575 2.00391C56.1333 2.00391 55.912 2.05194 55.7091 2.14458C55.5063 2.23722 55.327 2.37216 55.184 2.53984C54.8669 2.88671 54.6917 3.33453 54.6917 3.79846C54.6917 4.26239 54.8669 4.71022 55.184 5.05709C62.6506 12.8266 66.7449 23.0949 66.6143 33.7239C66.7434 44.3439 62.6487 54.6024 55.184 62.3612C54.8647 62.7128 54.6885 63.1657 54.6885 63.6346C54.6885 64.1036 54.8647 64.5564 55.184 64.908C55.3363 65.0763 55.5239 65.2109 55.7342 65.3029C55.9445 65.3948 56.1726 65.442 56.4032 65.4411C56.6147 65.4425 56.8243 65.4011 57.0184 65.3195C57.2126 65.2379 57.3871 65.118 57.531 64.9673C65.6728 56.5013 70.1385 45.3096 69.9977 33.7239C70.1369 22.1297 65.672 10.9293 57.531 2.451" fill="url(#paint2_linear_120_4020)"/>
<path d="M34.0329 2.47339C34.0654 2.05258 33.9811 1.63095 33.7893 1.25497C33.5976 0.878987 33.3057 0.563255 32.946 0.342508C32.5863 0.12176 32.1726 0.00460347 31.7505 0.00390935C31.4018 0.00333592 31.0586 0.0822734 30.7466 0.233534C30.616 0.296849 30.5081 0.397109 30.4185 0.511357L11.493 20.2854C11.0969 20.7908 11.1646 21.5175 11.6473 21.941L31.9881 39.7869C32.7696 40.4726 33.9948 39.9183 33.9958 38.8786L34.0329 2.47339Z" fill="url(#paint3_linear_120_4020)"/>
<path d="M0.00206845 40.288C-0.0138378 40.6052 0.0326873 40.9223 0.138965 41.2214C0.245242 41.5204 0.40919 41.7955 0.621421 42.0308C0.833653 42.2661 1.09 42.457 1.37578 42.5926C1.66155 42.7282 1.97115 42.8059 2.28683 42.8211H8.72625C9.07935 42.822 9.42582 42.9097 9.73596 43.0751C9.85295 43.1375 9.94953 43.2308 10.0309 43.3355L30.4936 69.4927C30.5828 69.6074 30.6904 69.7083 30.8209 69.7721C31.1348 69.9256 31.4806 70.0052 31.8316 70.0035C32.2561 70.0014 32.6716 69.8806 33.0315 69.6546C33.3914 69.4286 33.6816 69.1062 33.8694 68.7238C34.0573 68.3414 34.1354 67.9139 34.095 67.4894V56.7061C34.095 56.3585 33.9455 56.0277 33.6846 55.798L2.01128 25.9877C1.22983 25.2997 0.00206845 25.8546 0.00206845 26.8957V40.288Z" fill="url(#paint4_linear_120_4020)"/>
<path d="M4.22653 19.4311C3.5362 18.8104 2.48817 18.8734 1.8732 19.5726C1.24552 20.2863 1.3081 21.3891 2.01227 22.0232L25.0492 43.2144L35.6642 53.5762C36.3536 54.1988 37.4031 54.1342 38.0151 53.4315C38.6336 52.7212 38.57 51.6298 37.8734 51.0003L25.0492 38.6411L4.22653 19.4311Z" fill="url(#paint5_linear_120_4020)"/>
<defs>
<linearGradient id="paint0_linear_120_4020" x1="49.2197" y1="18.4102" x2="49.2197" y2="49.035" gradientUnits="userSpaceOnUse">
<stop stop-color="#006FBC"/>
<stop offset="1" stop-color="#00A0E9"/>
</linearGradient>
<linearGradient id="paint1_linear_120_4020" x1="55.7822" y1="10.7539" x2="55.7822" y2="56.6912" gradientUnits="userSpaceOnUse">
<stop stop-color="#006FBC"/>
<stop offset="1" stop-color="#00A0E9"/>
</linearGradient>
<linearGradient id="paint2_linear_120_4020" x1="62.3447" y1="2.00391" x2="62.3447" y2="65.4412" gradientUnits="userSpaceOnUse">
<stop stop-color="#006FBC"/>
<stop offset="1" stop-color="#00A0E9"/>
</linearGradient>
<linearGradient id="paint3_linear_120_4020" x1="22.6375" y1="-4.37108" x2="22.6375" y2="40.0897" gradientUnits="userSpaceOnUse">
<stop stop-color="#006FBC"/>
<stop offset="1" stop-color="#00A0E9"/>
</linearGradient>
<linearGradient id="paint4_linear_120_4020" x1="15.9584" y1="25.6836" x2="15.9584" y2="70.191" gradientUnits="userSpaceOnUse">
<stop stop-color="#006FBC"/>
<stop offset="1" stop-color="#00A0E9"/>
</linearGradient>
<linearGradient id="paint5_linear_120_4020" x1="14.8857" y1="17.5761" x2="14.8857" y2="46.0039" gradientUnits="userSpaceOnUse">
<stop stop-color="#006FBC"/>
<stop offset="1" stop-color="#00A0E9"/>
</linearGradient>
</defs>
</svg>
